<?xml version="1.0" standalone="no"?>
<!DOCTYPE svg PUBLIC "-//W3C//DTD SVG 20010904//EN"
 "http://www.w3.org/TR/2001/REC-SVG-20010904/DTD/svg10.dtd">
<svg version="1.0" xmlns="http://www.w3.org/2000/svg"
 width="1080.000000pt" height="1080.000000pt" viewBox="0 0 1080.000000 1080.000000"
 preserveAspectRatio="xMidYMid meet">
<metadata>
Created by potrace 1.16, written by Peter Selinger 2001-2019
</metadata>
<g transform="translate(0.000000,1080.000000) scale(0.100000,-0.100000)"
fill="#000000" stroke="none">
<path d="M0 5400 l0 -5400 5400 0 5400 0 0 5400 0 5400 -5400 0 -5400 0 0
-5400z m4923 2333 c-7 -3 -13 -12 -13 -21 0 -12 3 -13 12 -4 9 9 15 7 25 -6
13 -15 13 -15 4 5 -8 17 -7 22 5 27 23 9 886 7 880 -2 -2 -4 2 -13 10 -20 12
-11 14 -9 14 7 0 36 39 11 82 -53 23 -33 47 -66 52 -73 6 -7 36 -49 66 -94 48
-71 179 -258 240 -344 12 -16 69 -97 126 -180 58 -82 112 -159 120 -170 8 -11
50 -73 95 -138 78 -114 79 -117 47 -104 -103 43 -171 29 -489 -101 -134 -55
-311 -128 -394 -161 -82 -34 -159 -66 -170 -71 -17 -7 -124 -50 -200 -79 -119
-46 -421 -167 -540 -217 -82 -34 -247 -101 -365 -149 -118 -48 -273 -111 -345
-140 -71 -29 -193 -78 -270 -109 -77 -31 -147 -60 -155 -65 -9 -5 -74 -32
-145 -61 -185 -74 -326 -144 -357 -177 l-27 -28 29 -2 c16 -1 32 2 35 7 4 6
14 10 23 9 14 0 14 -2 -2 -8 -11 -4 49 -6 132 -5 87 1 154 -2 158 -7 3 -5 10
-7 15 -4 5 4 9 4 9 2 0 -22 -111 -292 -127 -308 -15 -15 -191 45 -249 84 -65
43 -114 109 -114 153 0 68 14 93 252 433 37 53 132 191 212 306 220 319 259
375 301 435 21 30 59 84 83 119 25 36 117 169 206 295 90 127 187 267 218 311
30 44 88 127 128 185 41 58 98 141 129 185 30 44 57 82 60 85 15 13 71 99 71
108 0 6 4 12 8 14 5 2 23 26 42 53 42 64 72 97 79 89 3 -4 0 -9 -6 -11z m1197
-1858 c25 -8 70 -23 100 -34 30 -10 64 -21 75 -23 11 -1 22 -5 25 -9 3 -3 46
-18 95 -33 50 -16 110 -35 135 -43 51 -17 150 -33 150 -24 0 3 111 5 247 3
205 -2 249 -5 256 -17 13 -23 30 -19 17 4 -15 29 -12 50 4 29 7 -10 24 -18 37
-18 21 1 22 2 7 11 -10 5 -18 15 -18 20 0 6 -11 27 -25 47 -14 20 -25 41 -25
45 0 9 91 -113 170 -228 25 -36 53 -75 62 -88 9 -12 54 -74 99 -137 157 -220
165 -280 53 -379 -46 -40 -157 -90 -244 -110 -47 -10 -37 -24 -94 118 -29 72
-42 130 -30 132 5 1 96 3 202 4 l193 2 -5 -26 c-5 -22 -4 -23 4 -8 36 58 -101
177 -279 242 -20 8 -74 30 -121 50 -47 20 -173 72 -280 116 -107 44 -231 95
-275 113 -44 19 -170 70 -280 115 -110 45 -213 88 -230 96 -16 8 -66 28 -110
45 -99 39 -122 57 -29 23 38 -13 89 -31 114 -38z m21 -892 l-73 -4 6 -31 c3
-18 9 -56 13 -86 5 -47 3 -57 -12 -68 -15 -12 -139 -14 -669 -14 -358 0 -662
3 -675 7 -25 6 -25 -4 -4 150 l6 42 -74 4 c-41 1 293 3 741 3 448 0 782 -2
741 -3z m48 -1654 c60 -13 65 -19 49 -54 -8 -18 -16 -24 -27 -19 -9 4 -41 9
-72 12 -52 4 -58 2 -64 -18 -9 -29 -2 -35 81 -59 83 -24 104 -44 104 -95 0
-74 -86 -119 -188 -98 -66 14 -87 31 -77 62 6 19 11 21 39 14 17 -4 56 -8 86
-8 52 -1 55 0 55 23 0 22 -9 27 -75 47 -80 25 -110 50 -110 91 0 56 39 95 110
106 14 2 28 5 32 6 4 0 30 -4 57 -10z m-2134 -156 c39 -87 74 -158 79 -158 5
0 40 71 79 158 l70 157 41 0 41 0 70 -156 c39 -85 72 -159 73 -164 2 -6 -15
-10 -38 -10 -37 0 -42 3 -56 35 l-14 35 -78 0 -78 0 -13 -35 -12 -35 -85 0
-84 0 -14 35 -15 35 -78 0 -79 0 -13 -35 c-11 -32 -16 -35 -53 -35 -34 0 -39
3 -33 18 3 9 36 83 73 165 l66 147 41 0 40 0 70 -157z m575 82 l0 -75 73 76
c70 73 73 75 114 72 l42 -3 -66 -69 c-75 -80 -75 -66 10 -173 40 -50 53 -61
62 -51 7 7 40 77 75 156 l64 142 40 0 41 0 70 -156 c39 -85 72 -159 73 -164 2
-6 -15 -10 -38 -10 -37 0 -42 3 -56 35 l-14 35 -78 0 -78 0 -13 -35 -12 -35
-85 0 c-46 0 -84 3 -84 8 0 4 -22 32 -49 62 -49 55 -49 55 -70 36 -15 -14 -21
-31 -21 -63 l0 -43 -40 0 -40 0 0 165 0 165 40 0 40 0 0 -75z m786 -22 l79
-96 3 96 3 97 39 0 40 0 0 -165 0 -165 -34 0 c-31 0 -42 9 -113 94 l-78 95 -3
-95 -3 -94 -39 0 -40 0 0 165 0 165 33 0 c30 0 41 -10 113 -97z m324 27 c0
-38 2 -70 5 -70 3 0 35 32 71 70 64 67 68 70 112 70 l46 0 -45 -47 c-24 -27
-55 -60 -68 -75 l-24 -27 41 -53 c22 -29 49 -62 59 -73 50 -55 50 -55 -3 -55
-48 1 -50 2 -94 60 -25 33 -49 59 -54 60 -25 1 -46 -35 -46 -77 l0 -43 -40 0
-40 0 0 165 0 165 40 0 40 0 0 -70z m660 5 l0 -65 75 0 75 0 0 65 0 65 40 0
40 0 0 -165 0 -165 -40 0 -40 0 0 70 0 70 -75 0 -75 0 0 -70 0 -70 -40 0 -40
0 0 165 0 165 40 0 40 0 0 -65z m567 -95 c39 -85 72 -158 72 -162 1 -5 -17 -8
-39 -8 -36 0 -41 3 -54 35 l-15 35 -78 0 -79 0 -13 -35 c-11 -32 -16 -35 -52
-35 -21 0 -39 2 -39 5 0 3 23 56 51 118 28 62 60 134 71 160 21 47 22 48 62
45 l40 -3 73 -155z m-3830 -373 c3 -3 2 -14 -1 -25 -6 -16 -15 -19 -64 -18
-77 1 -79 -22 -4 -44 83 -23 109 -72 62 -115 -45 -41 -191 -26 -174 18 5 13
16 15 70 10 60 -6 64 -5 64 15 0 16 -8 23 -37 28 -80 14 -116 51 -93 93 21 40
51 53 113 48 32 -3 61 -8 64 -10z m237 -2 c39 -19 66 -62 66 -105 0 -140 -213
-166 -260 -33 -13 38 -12 46 3 78 32 67 119 94 191 60z m206 -55 c23 -38 45
-70 49 -70 3 0 24 32 46 70 34 61 44 70 65 68 25 -3 25 -3 28 -120 l3 -118
-31 0 -30 0 0 68 0 67 -32 -50 c-18 -27 -37 -53 -42 -57 -14 -9 -32 7 -58 53
-12 22 -25 39 -30 39 -4 0 -8 -27 -8 -60 0 -57 -1 -60 -25 -60 l-25 0 0 120
c0 120 0 120 24 120 19 0 33 -15 66 -70z m422 64 c3 -3 4 -14 1 -25 -5 -16
-14 -19 -64 -19 -52 0 -59 -2 -59 -20 0 -18 7 -20 55 -20 52 0 55 -1 55 -25 0
-24 -3 -25 -56 -25 -54 0 -55 0 -52 -27 3 -28 4 -28 66 -25 61 4 62 3 62 -22
l0 -26 -95 0 -95 0 0 120 0 120 88 0 c49 0 91 -3 94 -6z m236 -16 c-2 -19 -10
-24 -40 -26 l-38 -3 0 -95 0 -94 -30 0 -30 0 0 94 0 95 -37 3 c-31 2 -39 7
-41 26 -3 22 -2 22 108 22 110 0 111 0 108 -22z m92 -23 l0 -45 55 0 55 0 0
45 c0 41 2 45 25 45 25 0 25 -1 27 -97 0 -54 1 -107 2 -118 1 -15 -6 -21 -27
-23 -26 -3 -27 -2 -27 47 l0 51 -57 0 -58 0 3 -50 c4 -50 4 -50 -27 -50 l-31
0 0 120 0 120 30 0 c29 0 30 -2 30 -45z m431 -20 c30 -36 57 -65 62 -65 4 0 7
29 7 65 0 63 1 65 25 65 28 0 26 9 27 -140 0 -93 0 -95 -23 -98 -19 -2 -36 12
-79 65 l-55 68 -3 -68 c-3 -67 -3 -67 -32 -67 l-30 0 0 120 c0 120 0 120 24
120 17 0 39 -18 77 -65z m364 51 c19 -8 35 -19 35 -23 0 -16 -36 -31 -51 -22
-8 5 -31 9 -51 9 -47 0 -83 -40 -74 -84 8 -38 32 -55 78 -56 35 0 37 1 40 37
3 33 6 38 28 38 23 0 25 -5 28 -48 3 -46 2 -48 -32 -62 -85 -36 -169 -4 -196
73 -14 40 -13 46 5 80 35 64 116 89 190 58z m373 -8 c-3 -21 -9 -23 -65 -26
-59 -3 -63 -4 -63 -27 0 -22 5 -24 53 -27 45 -3 52 -6 55 -25 3 -22 0 -23 -55
-23 l-58 0 3 -45 c4 -44 4 -45 -27 -45 l-31 0 0 120 0 120 96 0 c93 0 95 -1
92 -22z m218 6 c68 -32 87 -128 37 -179 -77 -76 -199 -54 -233 42 -13 38 -12
46 3 78 32 68 119 94 193 59z m283 1 c46 -23 56 -85 21 -123 -25 -26 -25 -31
0 -62 26 -34 25 -40 -9 -40 -23 0 -34 8 -51 35 -15 24 -29 35 -46 35 -21 0
-24 -5 -24 -35 0 -32 -2 -35 -30 -35 l-30 0 0 120 0 120 70 0 c43 0 82 -6 99
-15z m373 -10 c-4 -23 -8 -25 -63 -25 -52 0 -59 -2 -59 -20 0 -18 7 -20 55
-20 52 0 55 -1 55 -25 0 -24 -3 -25 -59 -25 -57 0 -58 -1 -53 -25 3 -20 11
-25 36 -26 87 -2 91 -3 94 -26 3 -22 1 -23 -92 -23 l-96 0 0 120 0 120 94 0
93 0 -5 -25z m94 -12 c9 -21 25 -58 36 -83 l20 -45 38 83 c34 72 42 82 65 82
32 0 31 -3 -31 -140 -41 -90 -45 -95 -74 -95 -30 0 -33 4 -81 113 -27 62 -49
115 -49 118 0 2 14 4 31 4 25 0 32 -6 45 -37z m392 15 c-3 -21 -9 -23 -65 -26
-55 -3 -63 -6 -63 -22 0 -17 7 -20 55 -20 52 0 55 -1 55 -25 0 -24 -3 -25 -59
-25 -57 0 -58 -1 -53 -25 3 -20 11 -25 36 -26 87 -2 91 -3 94 -26 3 -22 1 -23
-92 -23 l-96 0 0 120 0 120 96 0 c93 0 95 -1 92 -22z m205 10 c50 -26 63 -87
27 -126 -25 -26 -25 -31 0 -62 26 -34 25 -40 -9 -40 -23 0 -34 8 -51 35 -15
24 -29 35 -46 35 -21 0 -24 -5 -24 -35 0 -32 -2 -35 -30 -35 l-30 0 0 120 0
120 71 0 c39 0 80 -5 92 -12z m156 -40 l33 -52 31 52 c26 43 37 52 60 52 32 0
31 -2 -30 -97 -25 -39 -33 -63 -33 -98 0 -43 -1 -45 -30 -45 -29 0 -30 2 -30
43 0 33 -10 59 -45 115 -25 40 -45 74 -45 77 0 3 13 5 29 5 23 0 34 -9 60 -52z
m347 42 c40 -14 74 -67 74 -116 0 -33 -7 -46 -35 -74 -28 -27 -44 -34 -87 -38
-69 -5 -116 24 -138 86 -14 40 -13 46 5 80 33 61 109 87 181 62z m225 -55 c29
-36 56 -65 61 -65 4 0 8 29 8 65 0 64 0 65 28 65 l27 0 0 -120 1 -120 -26 0
c-21 0 -39 15 -81 68 l-54 67 -3 -67 c-3 -68 -3 -68 -32 -68 l-30 0 0 120 0
120 24 0 c17 0 38 -18 77 -65z m367 43 c-3 -21 -9 -23 -65 -26 -55 -3 -63 -6
-63 -22 0 -17 7 -20 43 -21 23 -1 48 -1 55 0 7 1 12 -9 12 -24 0 -24 -3 -25
-56 -25 -54 0 -55 0 -52 -27 3 -28 4 -28 66 -25 61 3 62 3 62 -22 l0 -26 -95
0 -95 0 0 120 0 120 96 0 c93 0 95 -1 92 -22z"/>
<path d="M3250 2733 c-16 -20 -20 -36 -16 -57 8 -38 32 -55 78 -56 42 0 68 27
68 72 0 66 -89 93 -130 41z"/>
<path d="M5590 2733 c-40 -51 -9 -112 58 -113 41 0 72 30 72 70 0 68 -88 96
-130 43z"/>
<path d="M7451 2734 c-12 -15 -21 -34 -21 -44 0 -10 9 -29 21 -44 41 -52 129
-23 129 44 0 67 -88 96 -129 44z"/>
</g>
</svg>
