<?xml version="1.0" standalone="no"?>
<!DOCTYPE svg PUBLIC "-//W3C//DTD SVG 20010904//EN"
 "http://www.w3.org/TR/2001/REC-SVG-20010904/DTD/svg10.dtd">
<svg version="1.0" xmlns="http://www.w3.org/2000/svg"
 width="200.000000pt" height="200.000000pt" viewBox="0 0 200.000000 200.000000"
 preserveAspectRatio="xMidYMid meet">

<g transform="translate(0.000000,200.000000) scale(0.100000,-0.100000)"
fill="#000000" stroke="none">
<path d="M0 1000 l0 -890 1000 0 1000 0 0 890 0 890 -1000 0 -1000 0 0 -890z
m956 411 c21 -16 59 -49 84 -75 62 -65 120 -62 120 6 0 39 -41 65 -77 49 -19
-9 -29 -9 -40 1 -13 11 -12 14 7 30 45 36 121 16 149 -39 37 -72 -29 -155
-111 -139 -21 4 -58 31 -109 81 -42 41 -84 75 -93 75 -20 0 -56 -35 -56 -56 0
-33 20 -54 53 -54 18 0 38 5 43 10 8 8 15 6 25 -6 12 -14 10 -19 -10 -35 -47
-38 -115 -18 -147 42 -20 40 -10 82 28 114 40 34 84 33 134 -4z m-283 -131 c5
-30 10 -68 13 -85 5 -33 81 -161 91 -152 3 3 -11 33 -31 65 -37 61 -39 92 -6
92 10 0 26 -12 35 -27 10 -15 46 -57 81 -94 67 -72 78 -98 72 -184 l-3 -50
-67 -3 -66 -3 -7 43 c-5 31 -21 59 -54 98 -87 101 -89 106 -102 222 -12 115
-9 141 18 136 13 -2 20 -18 26 -58z m699 48 c6 -16 -16 -231 -25 -245 -4 -6
-36 -46 -71 -88 -49 -59 -66 -87 -68 -114 l-3 -36 -65 0 -65 0 -6 50 c-10 74
5 118 59 173 26 26 63 67 83 91 25 32 40 43 52 38 25 -9 21 -29 -18 -94 -33
-55 -40 -87 -10 -47 38 51 73 134 80 189 4 33 11 68 16 78 11 20 35 23 41 5z
m-656 -65 c4 -29 3 -43 -5 -43 -6 0 -11 12 -11 28 0 15 -3 38 -6 52 -5 18 -4
22 4 15 6 -5 14 -29 18 -52z m579 -2 c-4 -23 -11 -41 -16 -41 -8 0 -6 22 8 73
9 33 15 9 8 -32z m-543 -6 c3 -14 1 -25 -3 -25 -5 0 -9 3 -9 8 0 4 -3 18 -7
31 -4 16 -2 22 4 18 6 -4 13 -18 15 -32z m506 3 c-6 -18 -13 -27 -15 -21 -4
11 13 53 22 53 2 0 -1 -15 -7 -32z m-1051 -585 c-2 -16 -4 -5 -4 22 0 28 2 40
4 28 2 -13 2 -35 0 -50z m990 0 c-2 -16 -4 -5 -4 22 0 28 2 40 4 28 2 -13 2
-35 0 -50z m635 18 c-3 -9 0 -12 9 -9 8 3 13 11 11 17 -1 7 3 9 9 6 7 -5 8
-10 0 -18 -7 -7 -7 -14 0 -24 8 -9 8 -13 1 -13 -6 0 -13 6 -15 13 -4 9 -8 8
-16 -3 -8 -11 -11 -3 -10 35 0 35 3 44 8 30 5 -11 6 -26 3 -34z m-1675 -23
c-2 -13 -4 -3 -4 22 0 25 2 35 4 23 2 -13 2 -33 0 -45z m223 47 c0 -8 6 -15
13 -16 10 0 10 -2 0 -6 -7 -2 -13 -13 -13 -24 0 -10 -4 -19 -10 -19 -5 0 -10
18 -10 40 0 22 5 40 10 40 6 0 10 -7 10 -15z m141 -38 l-5 -32 -6 30 c-7 35
-1 63 10 46 3 -6 4 -26 1 -44z m919 -2 c0 -5 -9 1 -20 15 -11 14 -20 30 -20
35 0 6 9 -1 20 -15 11 -14 20 -29 20 -35z m16 -23 c-11 -10 -13 3 -7 43 l6 40
3 -39 c2 -21 1 -41 -2 -44z m105 25 l-5 -32 -6 30 c-7 35 -1 63 10 46 3 -6 4
-26 1 -44z m-1313 -8 c-3 -20 -5 -19 -9 9 -3 20 -2 29 4 23 5 -5 7 -19 5 -32z
m35 21 c-3 -11 0 -27 7 -35 11 -13 10 -14 -4 -9 -16 6 -22 44 -9 57 10 11 11
8 6 -13z m37 5 c0 -8 -4 -15 -8 -15 -5 0 -9 7 -9 15 0 8 4 15 9 15 4 0 8 -7 8
-15z m161 2 c0 -6 2 -20 4 -29 2 -10 -1 -18 -6 -18 -5 0 -9 12 -9 26 0 32 -22
27 -31 -7 -7 -22 -7 -22 -8 6 -1 26 3 31 24 33 14 1 25 -4 26 -11z m81 -17
c-2 -16 -5 -30 -7 -30 -2 0 -5 14 -7 30 -3 19 0 30 7 30 7 0 10 -11 7 -30z
m54 3 c-1 -21 3 -28 18 -26 13 1 15 -2 7 -10 -7 -7 -15 -6 -26 3 -15 13 -20
42 -8 53 9 10 9 10 9 -20z m31 5 c-3 -8 -6 -5 -6 6 -1 11 2 17 5 13 3 -3 4
-12 1 -19z m77 6 c3 -9 2 -23 -4 -32 -8 -14 -9 -12 -10 11 0 15 -5 27 -10 27
-18 0 -23 -29 -9 -47 8 -10 9 -14 2 -10 -7 4 -13 0 -16 -10 -3 -10 -5 2 -6 27
-1 41 1 46 23 48 14 1 27 -5 30 -14z m30 -11 c-10 -40 -14 -41 -14 -5 0 18 5
32 10 32 6 0 8 -11 4 -27z m54 -4 c0 -22 -2 -29 -10 -21 -5 5 -7 19 -3 31 9
29 12 26 13 -10z m37 22 c3 -5 2 -12 -3 -15 -5 -3 -9 1 -9 9 0 17 3 19 12 6z
m72 -26 c1 -18 -1 -22 -4 -10 -8 31 -22 42 -33 25 -6 -8 -8 -21 -5 -27 2 -7 0
-13 -5 -13 -6 0 -10 13 -10 29 0 24 4 28 28 27 23 -1 27 -6 29 -31z m29 6 c-1
-31 -16 -33 -16 -2 0 15 8 31 15 31 2 0 2 -13 1 -29z m31 7 c-3 -8 -6 -5 -6 6
-1 11 2 17 5 13 3 -3 4 -12 1 -19z m30 -25 c-3 -10 -5 -2 -5 17 0 19 2 27 5
18 2 -10 2 -26 0 -35z m45 17 c3 -19 0 -30 -7 -30 -7 0 -10 11 -7 30 2 17 5
30 7 30 2 0 5 -13 7 -30z m51 23 c-7 -2 -13 -16 -13 -29 0 -13 -4 -24 -10 -24
-5 0 -10 14 -10 30 0 25 4 30 23 29 12 0 16 -3 10 -6z m63 -49 c-6 -16 -22
-18 -31 -4 -3 6 1 7 9 4 9 -3 16 -1 16 5 0 7 -7 14 -15 17 -8 4 -15 12 -15 20
0 10 6 8 21 -7 11 -11 18 -27 15 -35z m74 26 c0 -16 -2 -30 -4 -30 -2 0 -6 14
-8 30 -3 17 -1 30 4 30 4 0 8 -13 8 -30z m27 -17 c-3 -10 -5 -2 -5 17 0 19 2
27 5 18 2 -10 2 -26 0 -35z m45 8 c-6 -57 -9 -59 -13 -10 -2 27 0 46 6 46 6 0
9 -16 7 -36z m38 10 c0 -10 -8 -25 -17 -32 -16 -13 -17 -12 -4 3 7 10 11 27 8
38 -3 11 -1 18 4 14 5 -3 9 -13 9 -23z m143 9 c-3 -11 0 -27 7 -35 11 -13 10
-14 -4 -9 -16 6 -22 44 -9 57 10 11 11 8 6 -13z m37 5 c0 -8 -2 -15 -4 -15 -2
0 -6 7 -10 15 -3 8 -1 15 4 15 6 0 10 -7 10 -15z m70 -11 c0 -8 5 -14 10 -14
6 0 10 -4 10 -10 0 -22 -19 -8 -29 20 -6 18 -6 28 -1 25 6 -4 10 -13 10 -21z
m44 4 l7 -23 9 23 c14 33 21 27 9 -8 -11 -31 -29 -41 -29 -15 0 8 -4 15 -10
15 -5 0 -10 7 -10 15 0 23 17 18 24 -7z m58 -8 c-2 -16 -6 -30 -8 -30 -2 0 -4
14 -4 30 0 17 4 30 8 30 5 0 7 -13 4 -30z m36 -11 c-3 -20 -5 -19 -9 9 -3 20
-2 29 4 23 5 -5 7 -19 5 -32z m34 11 c-2 -16 -6 -30 -8 -30 -2 0 -4 14 -4 30
0 17 4 30 8 30 5 0 7 -13 4 -30z"/>
</g>
</svg>
